<svg width="263" height="31" viewBox="0 0 263 31" fill="none" xmlns="http://www.w3.org/2000/svg">
<path d="M12.64 30.56C10.3467 30.56 8.13333 30.28 6 29.72C3.89333 29.1333 2.17333 28.3867 0.84 27.48L3.44 21.64C4.69333 22.44 6.13333 23.1067 7.76 23.64C9.41333 24.1467 11.0533 24.4 12.68 24.4C13.7733 24.4 14.6533 24.3067 15.32 24.12C15.9867 23.9067 16.4667 23.64 16.76 23.32C17.08 22.9733 17.24 22.5733 17.24 22.12C17.24 21.48 16.9467 20.9733 16.36 20.6C15.7733 20.2267 15.0133 19.92 14.08 19.68C13.1467 19.44 12.1067 19.2 10.96 18.96C9.84 18.72 8.70667 18.4133 7.56 18.04C6.44 17.6667 5.41333 17.1867 4.48 16.6C3.54667 15.9867 2.78667 15.2 2.2 14.24C1.61333 13.2533 1.32 12.0133 1.32 10.52C1.32 8.84 1.77333 7.32 2.68 5.96C3.61333 4.6 5 3.50667 6.84 2.68C8.68 1.85333 10.9733 1.44 13.72 1.44C15.56 1.44 17.36 1.65333 19.12 2.08C20.9067 2.48 22.4933 3.08 23.88 3.88L21.44 9.76C20.1067 9.04 18.7867 8.50667 17.48 8.16C16.1733 7.78667 14.9067 7.6 13.68 7.6C12.5867 7.6 11.7067 7.72 11.04 7.96C10.3733 8.17333 9.89333 8.46666 9.6 8.84C9.30667 9.21333 9.16 9.64 9.16 10.12C9.16 10.7333 9.44 11.2267 10 11.6C10.5867 11.9467 11.3467 12.24 12.28 12.48C13.24 12.6933 14.28 12.92 15.4 13.16C16.5467 13.4 17.68 13.7067 18.8 14.08C19.9467 14.4267 20.9867 14.9067 21.92 15.52C22.8533 16.1067 23.6 16.8933 24.16 17.88C24.7467 18.84 25.04 20.0533 25.04 21.52C25.04 23.1467 24.5733 24.6533 23.64 26.04C22.7333 27.4 21.36 28.4933 19.52 29.32C17.7067 30.1467 15.4133 30.56 12.64 30.56ZM38.0184 30.36C35.2451 30.36 33.0851 29.68 31.5384 28.32C29.9918 26.9333 29.2184 24.8533 29.2184 22.08V3.48H36.8184V22C36.8184 22.7733 37.0318 23.3867 37.4584 23.84C37.8851 24.2667 38.4318 24.48 39.0984 24.48C40.0051 24.48 40.7784 24.2533 41.4184 23.8L43.2984 29.12C42.6584 29.5467 41.8718 29.8533 40.9384 30.04C40.0051 30.2533 39.0318 30.36 38.0184 30.36ZM26.0584 14.8V9.12H41.7784V14.8H26.0584ZM59.4691 30V25.96L58.9491 24.96V17.52C58.9491 16.32 58.5757 15.4 57.8291 14.76C57.1091 14.0933 55.9491 13.76 54.3491 13.76C53.3091 13.76 52.2557 13.9333 51.1891 14.28C50.1224 14.6 49.2157 15.0533 48.4691 15.64L45.9091 10.48C47.1357 9.68 48.6024 9.06667 50.3091 8.64C52.0424 8.18667 53.7624 7.96 55.4691 7.96C58.9891 7.96 61.7091 8.77333 63.6291 10.4C65.5757 12 66.5491 14.52 66.5491 17.96V30H59.4691ZM53.0691 30.36C51.3357 30.36 49.8691 30.0667 48.6691 29.48C47.4691 28.8933 46.5491 28.0933 45.9091 27.08C45.2957 26.0667 44.9891 24.9333 44.9891 23.68C44.9891 22.3467 45.3224 21.2 45.9891 20.24C46.6824 19.2533 47.7357 18.5067 49.1491 18C50.5624 17.4667 52.3891 17.2 54.6291 17.2H59.7491V21.16H55.6691C54.4424 21.16 53.5757 21.36 53.0691 21.76C52.5891 22.16 52.3491 22.6933 52.3491 23.36C52.3491 24.0267 52.6024 24.56 53.1091 24.96C53.6157 25.36 54.3091 25.56 55.1891 25.56C56.0157 25.56 56.7624 25.36 57.4291 24.96C58.1224 24.5333 58.6291 23.8933 58.9491 23.04L59.9891 25.84C59.5891 27.3333 58.8024 28.4667 57.6291 29.24C56.4824 29.9867 54.9624 30.36 53.0691 30.36ZM71.3463 30V8.32H78.5863V14.64L77.5063 12.84C78.1463 11.2133 79.1863 10 80.6263 9.2C82.0663 8.37333 83.8129 7.96 85.8663 7.96V14.8C85.5196 14.7467 85.2129 14.72 84.9463 14.72C84.7063 14.6933 84.4396 14.68 84.1463 14.68C82.5996 14.68 81.3463 15.1067 80.3863 15.96C79.4263 16.7867 78.9463 18.1467 78.9463 20.04V30H71.3463ZM95.3225 26L95.5225 16.92L104.363 8.32H113.363L103.563 18.44L99.6825 21.56L95.3225 26ZM89.0025 30V0.319998H96.6025V30H89.0025ZM104.923 30L98.2825 21.68L103.003 15.84L114.123 30H104.923ZM123.562 30.36C121.722 30.36 119.922 30.1467 118.162 29.72C116.429 29.2933 115.029 28.76 113.962 28.12L116.242 22.92C117.256 23.5333 118.442 24.0267 119.802 24.4C121.162 24.7467 122.496 24.92 123.802 24.92C125.082 24.92 125.962 24.7867 126.442 24.52C126.949 24.2533 127.202 23.8933 127.202 23.44C127.202 23.0133 126.962 22.7067 126.482 22.52C126.029 22.3067 125.416 22.1467 124.642 22.04C123.896 21.9333 123.069 21.8133 122.162 21.68C121.256 21.5467 120.336 21.3733 119.402 21.16C118.496 20.92 117.656 20.5733 116.882 20.12C116.136 19.64 115.536 19 115.082 18.2C114.629 17.4 114.402 16.3867 114.402 15.16C114.402 13.7733 114.802 12.5467 115.602 11.48C116.429 10.3867 117.629 9.53333 119.202 8.92C120.776 8.28 122.696 7.96 124.962 7.96C126.482 7.96 128.016 8.12 129.562 8.44C131.136 8.73333 132.456 9.18667 133.522 9.8L131.242 14.96C130.176 14.3467 129.109 13.9333 128.042 13.72C126.976 13.48 125.962 13.36 125.002 13.36C123.722 13.36 122.816 13.5067 122.282 13.8C121.776 14.0933 121.522 14.4533 121.522 14.88C121.522 15.3067 121.749 15.64 122.202 15.88C122.656 16.0933 123.256 16.2667 124.002 16.4C124.776 16.5067 125.616 16.6267 126.522 16.76C127.429 16.8667 128.336 17.04 129.242 17.28C130.176 17.52 131.016 17.88 131.762 18.36C132.536 18.8133 133.149 19.44 133.602 20.24C134.056 21.0133 134.282 22.0133 134.282 23.24C134.282 24.5733 133.869 25.7733 133.042 26.84C132.242 27.9067 131.042 28.76 129.442 29.4C127.869 30.04 125.909 30.36 123.562 30.36ZM144.837 30L135.757 2H143.917L151.557 26.24H147.437L155.477 2H162.757L170.357 26.24H166.397L174.277 2H181.837L172.757 30H164.277L157.797 9.4H160.077L153.317 30H144.837ZM193.593 30.36C191.22 30.36 189.113 29.88 187.273 28.92C185.433 27.96 183.98 26.64 182.913 24.96C181.873 23.2533 181.353 21.3067 181.353 19.12C181.353 16.9333 181.873 15 182.913 13.32C183.98 11.64 185.433 10.3333 187.273 9.4C189.113 8.44 191.22 7.96 193.593 7.96C195.967 7.96 198.073 8.44 199.913 9.4C201.78 10.3333 203.233 11.64 204.273 13.32C205.313 15 205.833 16.9333 205.833 19.12C205.833 21.3067 205.313 23.2533 204.273 24.96C203.233 26.64 201.78 27.96 199.913 28.92C198.073 29.88 195.967 30.36 193.593 30.36ZM193.593 24.32C194.473 24.32 195.247 24.12 195.913 23.72C196.607 23.32 197.153 22.7333 197.553 21.96C197.953 21.16 198.153 20.2133 198.153 19.12C198.153 18.0267 197.953 17.1067 197.553 16.36C197.153 15.5867 196.607 15 195.913 14.6C195.247 14.2 194.473 14 193.593 14C192.74 14 191.967 14.2 191.273 14.6C190.607 15 190.06 15.5867 189.633 16.36C189.233 17.1067 189.033 18.0267 189.033 19.12C189.033 20.2133 189.233 21.16 189.633 21.96C190.06 22.7333 190.607 23.32 191.273 23.72C191.967 24.12 192.74 24.32 193.593 24.32ZM209.354 30V8.32H216.594V14.64L215.514 12.84C216.154 11.2133 217.194 10 218.634 9.2C220.074 8.37333 221.821 7.96 223.874 7.96V14.8C223.527 14.7467 223.221 14.72 222.954 14.72C222.714 14.6933 222.447 14.68 222.154 14.68C220.607 14.68 219.354 15.1067 218.394 15.96C217.434 16.7867 216.954 18.1467 216.954 20.04V30H209.354ZM227.01 30V0.319998H234.61V30H227.01ZM248.989 30.36C247.016 30.36 245.216 29.9067 243.589 29C241.989 28.0667 240.709 26.7733 239.749 25.12C238.789 23.44 238.309 21.44 238.309 19.12C238.309 16.8267 238.789 14.8533 239.749 13.2C240.709 11.52 241.989 10.2267 243.589 9.32C245.216 8.41333 247.016 7.96 248.989 7.96C250.856 7.96 252.429 8.36 253.709 9.16C255.016 9.96 256.003 11.1867 256.669 12.84C257.336 14.4933 257.669 16.5867 257.669 19.12C257.669 21.7067 257.349 23.8267 256.709 25.48C256.069 27.1333 255.109 28.36 253.829 29.16C252.549 29.96 250.936 30.36 248.989 30.36ZM250.589 24.32C251.443 24.32 252.203 24.12 252.869 23.72C253.563 23.32 254.109 22.7333 254.509 21.96C254.909 21.16 255.109 20.2133 255.109 19.12C255.109 18.0267 254.909 17.1067 254.509 16.36C254.109 15.5867 253.563 15 252.869 14.6C252.203 14.2 251.443 14 250.589 14C249.709 14 248.923 14.2 248.229 14.6C247.563 15 247.029 15.5867 246.629 16.36C246.229 17.1067 246.029 18.0267 246.029 19.12C246.029 20.2133 246.229 21.16 246.629 21.96C247.029 22.7333 247.563 23.32 248.229 23.72C248.923 24.12 249.709 24.32 250.589 24.32ZM255.349 30V26.28L255.389 19.12L254.989 11.96V0.319998H262.589V30H255.349Z" fill="url(#paint0_linear_11_67)"/>
<defs>
<linearGradient id="paint0_linear_11_67" x1="231.128" y1="15" x2="0.00463929" y2="16.3153" gradientUnits="userSpaceOnUse">
<stop stop-color="#7861FF"/>
<stop offset="1" stop-color="#4626FD"/>
</linearGradient>
</defs>
</svg>
